<?xml version="1.0" encoding="UTF-8" standalone="no"?>
<svg
   xmlns:dc="http://purl.org/dc/elements/1.1/"
   xmlns:cc="http://creativecommons.org/ns#"
   xmlns:rdf="http://www.w3.org/1999/02/22-rdf-syntax-ns#"
   xmlns:svg="http://www.w3.org/2000/svg"
   xmlns="http://www.w3.org/2000/svg"
   width="210mm"
   height="297mm"
   viewBox="0 0 744.09448819 1052.3622047"
   id="svg2"
   version="1.1">
  <defs
     id="defs4" />
  <metadata
     id="metadata7">
    <rdf:RDF>
      <cc:Work
         rdf:about="">
        <dc:format>image/svg+xml</dc:format>
        <dc:type
           rdf:resource="http://purl.org/dc/dcmitype/StillImage" />
        <dc:title></dc:title>
      </cc:Work>
    </rdf:RDF>
  </metadata>
  <path
     id="path5259"
     d="m 69.560083,269.2101 c -18.020568,-2.31234 -32.820138,-15.36287 -37.297081,-32.88924 -1.403136,-5.49301 -1.316488,-0.83633 -1.316488,-70.75124 0,-57.19484 0.03447,-63.72531 0.347842,-65.903337 2.82387,-19.62659 18.008948,-34.811668 37.635538,-37.635538 2.178023,-0.313374 8.7085,-0.347842 65.903326,-0.347842 57.19484,0 63.72532,0.03447 65.90333,0.347842 19.63013,2.824379 34.81117,18.005415 37.63554,37.635538 0.31338,2.178027 0.34784,8.708497 0.34784,65.903337 0,57.19482 -0.0345,63.7253 -0.34784,65.90333 -2.87251,19.96464 -18.51349,35.2785 -38.56346,37.75691 -2.29215,0.28333 -128.035122,0.26427 -130.248547,-0.0198 z"
     style="fill:none;stroke:#0000ff;stroke-width:3.4065125;stroke-miterlimit:4;stroke-dasharray:none;stroke-opacity:1" />
  <path
     style="fill:none;stroke:#0000ff;stroke-width:3.4065125;stroke-miterlimit:4;stroke-dasharray:none;stroke-opacity:1"
     d="m 294.9144,269.2101 c -18.02056,-2.31234 -32.82013,-15.36287 -37.29708,-32.88924 -1.40313,-5.49301 -1.31648,-0.83633 -1.31648,-70.75124 0,-57.19484 0.0345,-63.72531 0.34784,-65.903333 2.82387,-19.62659 18.00895,-34.81167 37.63554,-37.63554 2.17802,-0.31338 8.7085,-0.34784 65.90332,-0.34784 57.19484,0 63.72532,0.0345 65.90333,0.34784 19.63013,2.82438 34.81117,18.00541 37.63554,37.63554 0.31338,2.178023 0.34784,8.708493 0.34784,65.903333 0,57.19482 -0.0345,63.7253 -0.34784,65.90333 -2.87251,19.96464 -18.51349,35.2785 -38.56346,37.75691 -2.29215,0.28333 -128.03512,0.26427 -130.24855,-0.0198 z"
     id="path6374" />
  <path
     id="path6378"
     d="m 520.26871,269.2101 c -18.02056,-2.31234 -32.82013,-15.36287 -37.29708,-32.88924 -1.40313,-5.49301 -1.31648,-0.83633 -1.31648,-70.75124 0,-57.19484 0.0345,-63.72531 0.34784,-65.903332 2.82387,-19.62659 18.00895,-34.81167 37.63554,-37.63554 2.17802,-0.31338 8.7085,-0.34784 65.90332,-0.34784 57.19484,0 63.72532,0.0345 65.90333,0.34784 19.63013,2.82438 34.81117,18.00541 37.63554,37.63554 0.31338,2.178022 0.34784,8.708492 0.34784,65.903332 0,57.19482 -0.0345,63.7253 -0.34784,65.90333 -2.87251,19.96464 -18.51349,35.2785 -38.56346,37.75691 -2.29215,0.28333 -128.03512,0.26427 -130.24855,-0.0198 z"
     style="fill:none;stroke:#0000ff;stroke-width:3.4065125;stroke-miterlimit:4;stroke-dasharray:none;stroke-opacity:1" />
  <path
     style="fill:none;stroke:#0000ff;stroke-width:3.4065125;stroke-miterlimit:4;stroke-dasharray:none;stroke-opacity:1"
     d="m 69.560087,508.72286 c -18.02057,-2.31234 -32.82014,-15.36287 -37.29708,-32.88924 -1.40314,-5.49301 -1.31649,-0.83633 -1.31649,-70.75124 0,-57.19484 0.0345,-63.72531 0.34784,-65.90333 2.82387,-19.62659 18.00895,-34.81167 37.63554,-37.63554 2.17802,-0.31337 8.7085,-0.34784 65.903323,-0.34784 57.19484,0 63.72532,0.0345 65.90333,0.34784 19.63013,2.82438 34.81117,18.00541 37.63554,37.63554 0.31338,2.17802 0.34784,8.70849 0.34784,65.90333 0,57.19482 -0.0345,63.7253 -0.34784,65.90333 -2.87251,19.96464 -18.51349,35.2785 -38.56346,37.75691 -2.29215,0.28333 -128.035123,0.26427 -130.248543,-0.0198 z"
     id="path6380" />
  <path
     id="path6382"
     d="m 294.9144,508.72286 c -18.02056,-2.31234 -32.82013,-15.36287 -37.29708,-32.88924 -1.40313,-5.49301 -1.31648,-0.83633 -1.31648,-70.75124 0,-57.19484 0.0345,-63.72531 0.34784,-65.90333 2.82387,-19.62659 18.00895,-34.81167 37.63554,-37.63554 2.17802,-0.31338 8.7085,-0.34784 65.90332,-0.34784 57.19484,0 63.72532,0.0345 65.90333,0.34784 19.63013,2.82438 34.81117,18.00541 37.63554,37.63554 0.31338,2.17802 0.34784,8.70849 0.34784,65.90333 0,57.19482 -0.0345,63.7253 -0.34784,65.90333 -2.87251,19.96464 -18.51349,35.2785 -38.56346,37.75691 -2.29215,0.28333 -128.03512,0.26427 -130.24855,-0.0198 z"
     style="fill:none;stroke:#0000ff;stroke-width:3.4065125;stroke-miterlimit:4;stroke-dasharray:none;stroke-opacity:1" />
  <path
     style="fill:none;stroke:#0000ff;stroke-width:3.4065125;stroke-miterlimit:4;stroke-dasharray:none;stroke-opacity:1"
     d="m 520.26871,508.72286 c -18.02056,-2.31234 -32.82013,-15.36287 -37.29708,-32.88924 -1.40313,-5.49301 -1.31648,-0.83633 -1.31648,-70.75124 0,-57.19484 0.0345,-63.72531 0.34784,-65.90333 2.82387,-19.62659 18.00895,-34.81167 37.63554,-37.63554 2.17802,-0.31338 8.7085,-0.34784 65.90332,-0.34784 57.19484,0 63.72532,0.0345 65.90333,0.34784 19.63013,2.82438 34.81117,18.00541 37.63554,37.63554 0.31338,2.17802 0.34784,8.70849 0.34784,65.90333 0,57.19482 -0.0345,63.7253 -0.34784,65.90333 -2.87251,19.96464 -18.51349,35.2785 -38.56346,37.75691 -2.29215,0.28333 -128.03512,0.26427 -130.24855,-0.0198 z"
     id="path6384" />
  <path
     id="path6400"
     d="m 69.560087,748.2356 c -18.02057,-2.31234 -32.82014,-15.36287 -37.29708,-32.88924 -1.40314,-5.49301 -1.31649,-0.83633 -1.31649,-70.75124 0,-57.19484 0.0345,-63.72531 0.34784,-65.90333 2.82387,-19.62659 18.00895,-34.81167 37.63554,-37.63554 2.17802,-0.31337 8.7085,-0.34784 65.903323,-0.34784 57.19484,0 63.72532,0.0345 65.90333,0.34784 19.63013,2.82438 34.81117,18.00541 37.63554,37.63554 0.31338,2.17802 0.34784,8.70849 0.34784,65.90333 0,57.19482 -0.0345,63.7253 -0.34784,65.90333 -2.87251,19.96464 -18.51349,35.2785 -38.56346,37.75691 -2.29215,0.28333 -128.035123,0.26427 -130.248543,-0.0198 z"
     style="fill:none;stroke:#0000ff;stroke-width:3.4065125;stroke-miterlimit:4;stroke-dasharray:none;stroke-opacity:1" />
  <path
     style="fill:none;stroke:#0000ff;stroke-width:3.4065125;stroke-miterlimit:4;stroke-dasharray:none;stroke-opacity:1"
     d="m 294.9144,748.2356 c -18.02056,-2.31234 -32.82013,-15.36287 -37.29708,-32.88924 -1.40313,-5.49301 -1.31648,-0.83633 -1.31648,-70.75124 0,-57.19484 0.0345,-63.72531 0.34784,-65.90333 2.82387,-19.62659 18.00895,-34.81167 37.63554,-37.63554 2.17802,-0.31338 8.7085,-0.34784 65.90332,-0.34784 57.19484,0 63.72532,0.0345 65.90333,0.34784 19.63013,2.82438 34.81117,18.00541 37.63554,37.63554 0.31338,2.17802 0.34784,8.70849 0.34784,65.90333 0,57.19482 -0.0345,63.7253 -0.34784,65.90333 -2.87251,19.96464 -18.51349,35.2785 -38.56346,37.75691 -2.29215,0.28333 -128.03512,0.26427 -130.24855,-0.0198 z"
     id="path6402" />
  <path
     id="path6404"
     d="m 520.26871,748.2356 c -18.02056,-2.31234 -32.82013,-15.36287 -37.29708,-32.88924 -1.40313,-5.49301 -1.31648,-0.83633 -1.31648,-70.75124 0,-57.19484 0.0345,-63.72531 0.34784,-65.90333 2.82387,-19.62659 18.00895,-34.81167 37.63554,-37.63554 2.17802,-0.31338 8.7085,-0.34784 65.90332,-0.34784 57.19484,0 63.72532,0.0345 65.90333,0.34784 19.63013,2.82438 34.81117,18.00541 37.63554,37.63554 0.31338,2.17802 0.34784,8.70849 0.34784,65.90333 0,57.19482 -0.0345,63.7253 -0.34784,65.90333 -2.87251,19.96464 -18.51349,35.2785 -38.56346,37.75691 -2.29215,0.28333 -128.03512,0.26427 -130.24855,-0.0198 z"
     style="fill:none;stroke:#0000ff;stroke-width:3.4065125;stroke-miterlimit:4;stroke-dasharray:none;stroke-opacity:1" />
  <path
     id="path6406"
     d="m 294.9144,987.74836 c -18.02056,-2.31234 -32.82013,-15.36287 -37.29708,-32.88924 -1.40313,-5.49301 -1.31648,-0.83633 -1.31648,-70.75124 0,-57.19484 0.0345,-63.72531 0.34784,-65.90333 2.82387,-19.62659 18.00895,-34.81167 37.63554,-37.63554 2.17802,-0.31338 8.7085,-0.34784 65.90332,-0.34784 57.19484,0 63.72532,0.0345 65.90333,0.34784 19.63013,2.82438 34.81117,18.00541 37.63554,37.63554 0.31338,2.17802 0.34784,8.70849 0.34784,65.90333 0,57.19482 -0.0345,63.7253 -0.34784,65.90333 -2.87251,19.96464 -18.51349,35.2785 -38.56346,37.75691 -2.29215,0.28333 -128.03512,0.26427 -130.24855,-0.0198 z"
     style="fill:none;stroke:#0000ff;stroke-width:3.4065125;stroke-miterlimit:4;stroke-dasharray:none;stroke-opacity:1" />
</svg>
