<?xml version="1.0" encoding="UTF-8" standalone="no"?>
<svg
   xmlns:dc="http://purl.org/dc/elements/1.1/"
   xmlns:cc="http://creativecommons.org/ns#"
   xmlns:rdf="http://www.w3.org/1999/02/22-rdf-syntax-ns#"
   xmlns:svg="http://www.w3.org/2000/svg"
   xmlns="http://www.w3.org/2000/svg"
   version="1.1"
   id="svg2"
   viewBox="0 0 744.09448819 1052.3622047"
   height="297mm"
   width="210mm">
  <defs
     id="defs4" />
  <metadata
     id="metadata7">
    <rdf:RDF>
      <cc:Work
         rdf:about="">
        <dc:format>image/svg+xml</dc:format>
        <dc:type
           rdf:resource="http://purl.org/dc/dcmitype/StillImage" />
        <dc:title></dc:title>
      </cc:Work>
    </rdf:RDF>
  </metadata>
  <g
     id="layer1">
    <path
       id="path5259"
       d="m 71.178851,269.12631 c -18.744216,-2.4052 -34.13809,-15.9798 -38.794812,-34.20997 -1.459482,-5.71359 -1.369354,-0.86992 -1.369354,-73.59239 0,-59.4916 0.03585,-66.284318 0.36181,-68.549803 2.937268,-20.414731 18.73213,-36.209593 39.146861,-39.146861 2.265485,-0.325958 9.058205,-0.36181 68.549794,-0.36181 59.4916,0 66.28432,0.03585 68.5498,0.36181 20.41841,2.937797 36.20907,18.728455 39.14686,39.146861 0.32596,2.265485 0.36181,9.058203 0.36181,68.549803 0,59.49159 -0.0359,66.28431 -0.36181,68.5498 -2.98786,20.76636 -19.25693,36.69517 -40.11205,39.27311 -2.38419,0.29471 -133.1766,0.27488 -135.478909,-0.0206 z"
       style="fill:none;stroke:#0000ff;stroke-opacity:1;stroke-width:0.00354331;stroke-miterlimit:4;stroke-dasharray:none" />
    <path
       style="fill:none;stroke:#0000ff;stroke-opacity:1;stroke-width:0.00354331;stroke-miterlimit:4;stroke-dasharray:none"
       d="m 304.15349,269.13845 c -18.74421,-2.4052 -34.13809,-15.9798 -38.79481,-34.20997 -1.45948,-5.71359 -1.36935,-0.86992 -1.36935,-73.59239 0,-59.4916 0.0358,-66.284318 0.36181,-68.549803 2.93726,-20.414731 18.73213,-36.209593 39.14686,-39.146861 2.26548,-0.325958 9.0582,-0.36181 68.54979,-0.36181 59.4916,0 66.28432,0.03585 68.5498,0.36181 20.41841,2.937797 36.20907,18.728455 39.14686,39.146861 0.32596,2.265485 0.36181,9.058203 0.36181,68.549803 0,59.49159 -0.0359,66.28431 -0.36181,68.5498 -2.98786,20.76636 -19.25693,36.69517 -40.11205,39.27311 -2.38419,0.29471 -133.1766,0.27488 -135.47891,-0.0206 z"
       id="path5281" />
    <path
       id="path5285"
       d="m 537.12758,269.13845 c -18.74421,-2.4052 -34.13809,-15.9798 -38.79481,-34.20997 -1.45948,-5.71359 -1.36935,-0.86992 -1.36935,-73.59239 0,-59.4916 0.0358,-66.284318 0.36181,-68.549803 2.93726,-20.414731 18.73213,-36.209593 39.14686,-39.146861 2.26548,-0.325958 9.0582,-0.36181 68.54979,-0.36181 59.4916,0 66.28432,0.03585 68.5498,0.36181 20.41841,2.937797 36.20907,18.728455 39.14686,39.146861 0.32596,2.265485 0.36181,9.058203 0.36181,68.549803 0,59.49159 -0.0359,66.28431 -0.36181,68.5498 -2.98786,20.76636 -19.25693,36.69517 -40.11205,39.27311 -2.38419,0.29471 -133.1766,0.27488 -135.47891,-0.0206 z"
       style="fill:none;stroke:#0000ff;stroke-opacity:1;stroke-width:0.00354331;stroke-miterlimit:4;stroke-dasharray:none" />
    <path
       style="fill:none;stroke:#0000ff;stroke-opacity:1;stroke-width:0.00354331;stroke-miterlimit:4;stroke-dasharray:none"
       d="m 71.178851,512.37654 c -18.744216,-2.4052 -34.13809,-15.9798 -38.794812,-34.20997 -1.459482,-5.71359 -1.369354,-0.86992 -1.369354,-73.59239 0,-59.4916 0.03585,-66.28432 0.36181,-68.5498 2.937268,-20.41473 18.73213,-36.2096 39.146861,-39.14686 2.265485,-0.32596 9.058205,-0.36181 68.549794,-0.36181 59.4916,0 66.28432,0.0358 68.5498,0.36181 20.41841,2.93779 36.20907,18.72845 39.14686,39.14686 0.32596,2.26548 0.36181,9.0582 0.36181,68.5498 0,59.49159 -0.0359,66.28431 -0.36181,68.5498 -2.98786,20.76636 -19.25693,36.69517 -40.11205,39.27311 -2.38419,0.29471 -133.1766,0.27488 -135.478909,-0.0206 z"
       id="path5287" />
    <path
       id="path5308"
       d="m 71.178851,755.61467 c -18.744216,-2.4052 -34.13809,-15.9798 -38.794812,-34.20997 -1.459482,-5.71359 -1.369354,-0.86992 -1.369354,-73.59239 0,-59.4916 0.03585,-66.28432 0.36181,-68.5498 2.937268,-20.41473 18.73213,-36.2096 39.146861,-39.14686 2.265485,-0.32596 9.058205,-0.36181 68.549794,-0.36181 59.4916,0 66.28432,0.0358 68.5498,0.36181 20.41841,2.93779 36.20907,18.72845 39.14686,39.14686 0.32596,2.26548 0.36181,9.0582 0.36181,68.5498 0,59.49159 -0.0359,66.28431 -0.36181,68.5498 -2.98786,20.76636 -19.25693,36.69517 -40.11205,39.27311 -2.38419,0.29471 -133.1766,0.27488 -135.478909,-0.0206 z"
       style="fill:none;stroke:#0000ff;stroke-opacity:1;stroke-width:0.00354331;stroke-miterlimit:4;stroke-dasharray:none" />
    <path
       id="path5319"
       d="m 304.15349,512.38869 c -18.74421,-2.4052 -34.13809,-15.9798 -38.79481,-34.20997 -1.45948,-5.71359 -1.36935,-0.86992 -1.36935,-73.59239 0,-59.4916 0.0358,-66.28432 0.36181,-68.5498 2.93726,-20.41473 18.73213,-36.2096 39.14686,-39.14686 2.26548,-0.32596 9.0582,-0.36181 68.54979,-0.36181 59.4916,0 66.28432,0.0359 68.5498,0.36181 20.41841,2.93779 36.20907,18.72845 39.14686,39.14686 0.32596,2.26548 0.36181,9.0582 0.36181,68.5498 0,59.49159 -0.0359,66.28431 -0.36181,68.5498 -2.98786,20.76636 -19.25693,36.69517 -40.11205,39.27311 -2.38419,0.29471 -133.1766,0.27488 -135.47891,-0.0206 z"
       style="fill:none;stroke:#0000ff;stroke-opacity:1;stroke-width:0.00354331;stroke-miterlimit:4;stroke-dasharray:none" />
    <path
       style="fill:none;stroke:#0000ff;stroke-opacity:1;stroke-width:0.00354331;stroke-miterlimit:4;stroke-dasharray:none"
       d="m 537.12758,512.38869 c -18.74421,-2.4052 -34.13809,-15.9798 -38.79481,-34.20997 -1.45948,-5.71359 -1.36935,-0.86992 -1.36935,-73.59239 0,-59.4916 0.0358,-66.28432 0.36181,-68.5498 2.93726,-20.41473 18.73213,-36.2096 39.14686,-39.14686 2.26548,-0.32596 9.0582,-0.36181 68.54979,-0.36181 59.4916,0 66.28432,0.0359 68.5498,0.36181 20.41841,2.93779 36.20907,18.72845 39.14686,39.14686 0.32596,2.26548 0.36181,9.0582 0.36181,68.5498 0,59.49159 -0.0359,66.28431 -0.36181,68.5498 -2.98786,20.76636 -19.25693,36.69517 -40.11205,39.27311 -2.38419,0.29471 -133.1766,0.27488 -135.47891,-0.0206 z"
       id="path5321" />
    <path
       style="fill:none;stroke:#0000ff;stroke-opacity:1;stroke-width:0.00354331;stroke-miterlimit:4;stroke-dasharray:none"
       d="m 304.15349,755.61467 c -18.74421,-2.4052 -34.13809,-15.9798 -38.79481,-34.20997 -1.45948,-5.71359 -1.36935,-0.86992 -1.36935,-73.59239 0,-59.4916 0.0358,-66.28432 0.36181,-68.5498 2.93727,-20.41473 18.73213,-36.2096 39.14686,-39.14686 2.26548,-0.32596 9.0582,-0.36181 68.54979,-0.36181 59.4916,0 66.28432,0.0358 68.5498,0.36181 20.41841,2.93779 36.20907,18.72845 39.14686,39.14686 0.32596,2.26548 0.36181,9.0582 0.36181,68.5498 0,59.49159 -0.0359,66.28431 -0.36181,68.5498 -2.98786,20.76636 -19.25693,36.69517 -40.11205,39.27311 -2.38419,0.29471 -133.1766,0.27488 -135.47891,-0.0206 z"
       id="path5329" />
    <path
       id="path5333"
       d="m 537.12758,755.61467 c -18.74421,-2.4052 -34.13809,-15.9798 -38.79481,-34.20997 -1.45948,-5.71359 -1.36935,-0.86992 -1.36935,-73.59239 0,-59.4916 0.0358,-66.28432 0.36181,-68.5498 2.93727,-20.41473 18.73213,-36.2096 39.14686,-39.14686 2.26548,-0.32596 9.0582,-0.36181 68.54979,-0.36181 59.4916,0 66.28432,0.0358 68.5498,0.36181 20.41841,2.93779 36.20907,18.72845 39.14686,39.14686 0.32596,2.26548 0.36181,9.0582 0.36181,68.5498 0,59.49159 -0.0359,66.28431 -0.36181,68.5498 -2.98786,20.76636 -19.25693,36.69517 -40.11205,39.27311 -2.38419,0.29471 -133.1766,0.27488 -135.47891,-0.0206 z"
       style="fill:none;stroke:#0000ff;stroke-opacity:1;stroke-width:0.00354331;stroke-miterlimit:4;stroke-dasharray:none" />
    <path
       id="path5335"
       d="m 304.15349,998.85277 c -18.74421,-2.4052 -34.13809,-15.9798 -38.79481,-34.20997 -1.45948,-5.71359 -1.36935,-0.86992 -1.36935,-73.59239 0,-59.4916 0.0358,-66.28432 0.36181,-68.5498 2.93727,-20.41473 18.73213,-36.2096 39.14686,-39.14686 2.26548,-0.32596 9.0582,-0.36181 68.54979,-0.36181 59.4916,0 66.28432,0.0358 68.5498,0.36181 20.41841,2.93779 36.20907,18.72845 39.14686,39.14686 0.32596,2.26548 0.36181,9.0582 0.36181,68.5498 0,59.49159 -0.0359,66.28431 -0.36181,68.5498 -2.98786,20.76636 -19.25693,36.69517 -40.11205,39.27311 -2.38419,0.29471 -133.1766,0.27488 -135.47891,-0.0206 z"
       style="fill:none;stroke:#0000ff;stroke-opacity:1;stroke-width:0.00354331;stroke-miterlimit:4;stroke-dasharray:none" />
  </g>
</svg>
