<?xml version="1.0" encoding="utf-8"?>
<!-- Generator: Adobe Illustrator 19.0.0, SVG Export Plug-In . SVG Version: 6.00 Build 0)  -->
<svg version="1.1" id="MODELSKETCH_x5F_VISIBLE" xmlns="http://www.w3.org/2000/svg" xmlns:xlink="http://www.w3.org/1999/xlink"
	 x="0px" y="0px" viewBox="0 0 960 560" style="enable-background:new 0 0 960 560;" xml:space="preserve">
<style type="text/css">
	.st0{fill:none;stroke:#FF0000;stroke-width:2.834646e-003;stroke-linecap:round;stroke-linejoin:round;stroke-miterlimit:10;}
</style>
<g id="ARC_3_">
	<path class="st0" d="M201.8,11.1c1.6,0,2.8,1.3,2.8,2.8V150c0,1.6-1.3,2.8-2.8,2.8H65.8c-1.6,0-2.8-1.3-2.8-2.8V13.9
		c0-1.6,1.3-2.8,2.8-2.8H201.8z"/>
</g>
<g id="CIRCLE">
	<path class="st0" d="M22.3,234.2c0-39.1,31.7-70.9,70.9-70.9S164,195,164,234.2S132.3,305,93.2,305S22.3,273.3,22.3,234.2
		L22.3,234.2z"/>
</g>
<g id="ARC_10_">
	<path class="st0" d="M177,268.2c0,0,0-0.1,0-0.1c0.1-1.6,1.4-2.8,3-2.7c36.8,1.5,66.3,31,67.9,67.9c0,0,0,0.1,0,0.1
		c0,1.6-1.3,2.8-2.8,2.8h-65.1c-1.6,0-2.8-1.3-2.8-2.8V268.2z"/>
</g>
<g id="ARC_9_">
	<path class="st0" d="M22.3,315c0,0,0-0.1,0-0.1c0-1.6,1.3-2.8,2.8-2.8h135.9c0,0,0.1,0,0.1,0c1.6,0.1,2.8,1.4,2.7,3
		c-1.5,36.8-31,66.3-67.9,67.9C57,384.4,24,354.1,22.3,315z"/>
</g>
<g id="ARC_8_">
	<path class="st0" d="M194.1,341.2c1-0.6,2.2-0.6,3.1,0l61.5,41c0.8,0.5,1.3,1.4,1.3,2.4c0,1.6-1.3,2.8-2.8,2.8c0,0-123,0-123,0
		c-0.9,0-1.8-0.5-2.4-1.3c-0.9-1.3-0.5-3.1,0.8-3.9L194.1,341.2z"/>
</g>
<g id="ARC_7_">
	<path class="st0" d="M227.1,270.2c-0.5-0.5-0.8-1.3-0.8-2c0-1.6,1.3-2.8,2.8-2.8h37.6c1.6,0,2.8,1.3,2.8,2.8v37.6
		c0,0.8-0.3,1.5-0.8,2c-1.1,1.1-2.9,1.1-4,0L227.1,270.2z"/>
</g>
<g id="ARC_6_">
	<path class="st0" d="M215.3,152.8c-1.6,0-2.8-1.3-2.8-2.8V13.9c0-1.6,1.3-2.8,2.8-2.8h65.2c1.6,0,2.8,1.3,2.8,2.8V150
		c0,1.6-1.3,2.8-2.8,2.8H215.3z"/>
</g>
<g id="ARC_5_">
	<path class="st0" d="M179,257.8c-1.6,0-2.8-1.3-2.8-2.8v-88.8c0-1.6,1.3-2.8,2.8-2.8h88.8c1.6,0,2.8,1.3,2.8,2.8V255
		c0,1.6-1.3,2.8-2.8,2.8H179z"/>
</g>
<g id="ARC_4_">
	<path class="st0" d="M50.6,150c0,1.6-1.3,2.8-2.8,2.8H25.1c-1.6,0-2.8-1.3-2.8-2.8c0,0,0-136.1,0-136.1c0-1.6,1.3-2.8,2.8-2.8h22.7
		c1.6,0,2.8,1.3,2.8,2.8V150z"/>
</g>
</svg>
