<?xml version="1.0" encoding="UTF-8" standalone="no"?>
<svg
   xmlns:dc="http://purl.org/dc/elements/1.1/"
   xmlns:cc="http://creativecommons.org/ns#"
   xmlns:rdf="http://www.w3.org/1999/02/22-rdf-syntax-ns#"
   xmlns:svg="http://www.w3.org/2000/svg"
   xmlns="http://www.w3.org/2000/svg"
   viewBox="0 0 389.85599 226.84801"
   height="226.84801"
   width="389.85599"
   id="svg2"
   version="1.1">
  <metadata
     id="metadata8">
    <rdf:RDF>
      <cc:Work
         rdf:about="">
        <dc:format>image/svg+xml</dc:format>
        <dc:type
           rdf:resource="http://purl.org/dc/dcmitype/StillImage" />
        <dc:title></dc:title>
      </cc:Work>
    </rdf:RDF>
  </metadata>
  <defs
     id="defs6" />
  <path
     id="path848"
     d="m 356.97599,209.91908 c -1.12091,-0.37201 -1.90452,-1.04927 -2.38326,-2.0598 -0.2721,-0.57437 -0.30474,-0.73581 -0.30474,-1.50727 0,-0.77146 0.0326,-0.9329 0.30474,-1.50727 0.38771,-0.8184 1.01759,-1.44828 1.83599,-1.83599 0.57437,-0.2721 0.73581,-0.30474 1.50727,-0.30474 0.77146,0 0.9329,0.0326 1.50727,0.30474 0.8184,0.38771 1.44828,1.01759 1.83599,1.83599 0.2721,0.57437 0.30474,0.73581 0.30474,1.50727 0,0.77146 -0.0326,0.9329 -0.30474,1.50727 -0.61089,1.2895 -1.80885,2.09899 -3.19191,2.15683 -0.43088,0.018 -0.88387,-0.0215 -1.11135,-0.097 z M 56.825216,194.56294 c -1.001803,-0.28427 -1.915758,-1.07874 -2.376828,-2.06612 -0.218901,-0.46877 -0.254547,-0.67238 -0.255399,-1.45883 -8.64e-4,-0.83773 0.02498,-0.96677 0.310172,-1.54608 0.375066,-0.76186 1.062214,-1.43613 1.827903,-1.79362 0.473328,-0.221 0.674825,-0.25644 1.462953,-0.25729 0.837736,-9.6e-4 0.966769,0.025 1.54608,0.31017 0.761867,0.37507 1.436129,1.06221 1.793626,1.8279 0.221219,0.47381 0.256295,0.67375 0.256295,1.46094 0,0.78719 -0.03508,0.98713 -0.256295,1.46094 -0.351125,0.75203 -1.033087,1.45348 -1.761967,1.81231 -0.709807,0.34943 -1.813567,0.45765 -2.54654,0.24968 z m 223.254774,-3.07586 c -1.12091,-0.37201 -1.90452,-1.04927 -2.38325,-2.0598 -0.27211,-0.57437 -0.30475,-0.73582 -0.30475,-1.50727 0,-0.77146 0.0326,-0.9329 0.30475,-1.50727 0.3877,-0.8184 1.01759,-1.44828 1.83599,-1.83599 0.57436,-0.2721 0.73581,-0.30474 1.50726,-0.30474 0.77146,0 0.9329,0.0326 1.50727,0.30474 0.8184,0.38771 1.44828,1.01759 1.83599,1.83599 0.2721,0.57437 0.30474,0.73581 0.30474,1.50727 0,0.77145 -0.0326,0.9329 -0.30474,1.50727 -0.61089,1.2895 -1.80885,2.09899 -3.1919,2.15683 -0.43089,0.018 -0.88388,-0.0215 -1.11136,-0.097 z m -54.72,-33.2748 c -2.02415,-0.43994 -3.60635,-1.85637 -4.29416,-3.84427 -0.28749,-0.83089 -0.3061,-2.46916 -0.0371,-3.264 0.62376,-1.84293 1.96031,-3.17949 3.80324,-3.80325 0.38837,-0.13144 0.80728,-0.1787 1.584,-0.1787 1.63432,0 2.7822,0.47514 3.9365,1.62945 1.15431,1.1543 1.62945,2.30218 1.62945,3.9365 0,1.60603 -0.47308,2.77109 -1.58195,3.8959 -1.0851,1.1007 -2.24277,1.61918 -3.744,1.67681 -0.5016,0.0193 -1.0848,-0.002 -1.296,-0.0484 z m 134.688,-15.8772 c -1.12091,-0.37201 -1.90452,-1.04927 -2.38326,-2.05981 -0.2721,-0.57436 -0.30474,-0.73581 -0.30474,-1.50726 0,-0.77146 0.0326,-0.9329 0.30474,-1.50727 0.38771,-0.8184 1.01759,-1.44829 1.83599,-1.83599 0.57437,-0.2721 0.73581,-0.30474 1.50727,-0.30474 0.77146,0 0.9329,0.0326 1.50727,0.30474 0.8184,0.3877 1.44828,1.01759 1.83599,1.83599 0.2721,0.57437 0.30474,0.73581 0.30474,1.50727 0,0.77145 -0.0326,0.9329 -0.30474,1.50726 -0.61089,1.2895 -1.80885,2.099 -3.19191,2.15684 -0.43088,0.018 -0.88387,-0.0215 -1.11135,-0.097 z M 280.31321,95.874933 c -1.0018,-0.28426 -1.91576,-1.078737 -2.37683,-2.066114 -0.2189,-0.468776 -0.25454,-0.672384 -0.2554,-1.458834 -9.6e-4,-0.837735 0.025,-0.966769 0.31018,-1.54608 0.37506,-0.761866 1.06221,-1.436128 1.8279,-1.793626 0.47483,-0.221695 0.67205,-0.256111 1.46093,-0.25494 1.03583,0.0015 1.49843,0.159786 2.35286,0.804889 0.37689,0.284557 0.5768,0.541449 0.86837,1.115888 0.36321,0.715564 0.37873,0.78407 0.37778,1.667059 -9.6e-4,0.795511 -0.0359,0.995535 -0.25729,1.469764 -0.35112,0.752041 -1.03308,1.45349 -1.76196,1.812317 -0.70981,0.349437 -1.81357,0.457654 -2.54654,0.249677 z m 95.99999,0 c -1.0018,-0.28426 -1.91575,-1.078737 -2.37682,-2.066114 -0.2189,-0.468776 -0.25455,-0.672384 -0.2554,-1.458834 -9.6e-4,-0.837735 0.025,-0.966769 0.31018,-1.54608 0.37506,-0.761866 1.06221,-1.436128 1.82789,-1.793626 0.47333,-0.220993 0.67483,-0.256431 1.46296,-0.257284 0.83773,-8.64e-4 0.96676,0.02498 1.54608,0.310172 0.76186,0.375065 1.43613,1.062213 1.79362,1.827902 0.22122,0.47381 0.2563,0.673748 0.2563,1.460935 0,0.787187 -0.0351,0.987125 -0.2563,1.460935 -0.35112,0.752041 -1.03308,1.45349 -1.76196,1.812317 -0.70981,0.349437 -1.81357,0.457654 -2.54655,0.249677 z M 102.96,49.540272 c -2.02415,-0.439936 -3.606358,-1.856373 -4.294169,-3.84427 -0.287491,-0.830892 -0.306096,-2.46916 -0.03708,-3.264 0.62376,-1.842928 1.960309,-3.179478 3.803249,-3.803241 0.38836,-0.131447 0.80727,-0.178709 1.584,-0.178709 1.63431,0 2.78219,0.475149 3.9365,1.629453 1.1543,1.154304 1.62944,2.302187 1.62944,3.936497 0,1.606035 -0.47308,2.771098 -1.58194,3.895906 -1.08512,1.100701 -2.24277,1.619179 -3.744,1.676813 -0.5016,0.01926 -1.08481,-0.0025 -1.29601,-0.04845 z m 122.39999,0 c -2.02415,-0.439936 -3.60635,-1.856373 -4.29416,-3.84427 -0.28749,-0.830892 -0.3061,-2.46916 -0.0371,-3.264 0.62376,-1.842928 1.96031,-3.179478 3.80324,-3.803241 0.38837,-0.131447 0.80728,-0.178709 1.584,-0.178709 1.63432,0 2.7822,0.475149 3.9365,1.629453 1.15431,1.154304 1.62945,2.302187 1.62945,3.936497 0,1.606035 -0.47308,2.771098 -1.58195,3.895906 -1.0851,1.100701 -2.24277,1.619179 -3.744,1.676813 -0.5016,0.01926 -1.0848,-0.0025 -1.296,-0.04845 z M 280.31321,28.67493 c -1.0018,-0.28426 -1.91576,-1.078737 -2.37683,-2.066114 -0.2189,-0.468776 -0.25454,-0.672383 -0.2554,-1.458834 -9.6e-4,-0.837735 0.025,-0.966769 0.31018,-1.54608 0.37506,-0.761866 1.06221,-1.436128 1.8279,-1.793626 0.47332,-0.220993 0.67483,-0.256431 1.46295,-0.257284 0.83773,-8.64e-4 0.96677,0.02498 1.54608,0.310172 0.76186,0.375065 1.43613,1.062213 1.79362,1.827902 0.22123,0.47381 0.25631,0.673749 0.25631,1.460935 0,0.787187 -0.0351,0.987125 -0.25631,1.460935 -0.35112,0.752041 -1.03308,1.45349 -1.76196,1.812317 -0.70981,0.349437 -1.81357,0.457656 -2.54654,0.249677 z m 95.99999,0 c -1.0018,-0.28426 -1.91575,-1.078737 -2.37682,-2.066114 -0.2189,-0.468776 -0.25455,-0.672383 -0.2554,-1.458834 -9.6e-4,-0.837735 0.025,-0.966769 0.31018,-1.54608 0.37506,-0.761866 1.06221,-1.436128 1.82789,-1.793626 0.47333,-0.220993 0.67483,-0.256431 1.46296,-0.257284 0.83773,-8.64e-4 0.96676,0.02498 1.54608,0.310172 0.76186,0.375065 1.43613,1.062213 1.79362,1.827902 0.22122,0.47381 0.2563,0.673749 0.2563,1.460935 0,0.787187 -0.0351,0.987125 -0.2563,1.460935 -0.35112,0.752041 -1.03308,1.45349 -1.76196,1.812317 -0.70981,0.349437 -1.81357,0.457656 -2.54655,0.249677 z M 38.681217,11.586929 C 37.679413,11.302669 36.765459,10.508192 36.304388,9.5208144 36.085487,9.0520396 36.049841,8.8484317 36.04899,8.0619818 36.048126,7.2242459 36.073968,7.095212 36.359162,6.5159015 36.734227,5.7540348 37.421375,5.0797733 38.187064,4.722276 38.660392,4.5012814 38.86189,4.4658446 39.650018,4.4649906 c 0.837735,-9.12e-4 0.966769,0.024979 1.54608,0.3101725 0.761866,0.3750657 1.436128,1.0622128 1.793625,1.827903 0.22122,0.4738089 0.256295,0.6737475 0.256295,1.4609343 0,0.7871867 -0.03507,0.9871253 -0.256295,1.4609343 -0.351124,0.7520413 -1.033086,1.4534903 -1.761966,1.8123173 -0.709808,0.349437 -1.813568,0.457656 -2.54654,0.249677 z"
     style="fill:none;stroke-width:0.00377953;fill-opacity:0;stroke:#ff0000;stroke-opacity:1;stroke-miterlimit:4;stroke-dasharray:none" />
  <path
     id="rect817"
     d="M 30.625,-0.0488281 V 228.96484 l 369.0293,0.28711 V 174.82812 H 360.83398 V 144.65234 H 399.6543 V -0.421875 H 224.33594 V 31.816406 H 100.59375 V -0.421875 Z"
     style="fill:none;stroke:#ff0000;stroke-width:0.00377953;stroke-miterlimit:4;stroke-dasharray:none;stroke-opacity:1" />
</svg>
