<?xml version="1.0" encoding="utf-8"?>
<!-- Generator: Adobe Illustrator 19.0.0, SVG Export Plug-In . SVG Version: 6.00 Build 0)  -->
<svg version="1.1" id="MODELSKETCH_x5F_VISIBLE" xmlns="http://www.w3.org/2000/svg" xmlns:xlink="http://www.w3.org/1999/xlink"
	 x="0px" y="0px" viewBox="804 -779.2 2936 2118.2" style="enable-background:new 804 -779.2 2936 2118.2;" xml:space="preserve">
<style type="text/css">
	.st0{fill:none;stroke:#00FF00;stroke-width:2.834646e-003;stroke-linecap:round;stroke-linejoin:round;stroke-miterlimit:10;}
</style>
<g id="ARC_3_">
	<path class="st0" d="M2034.2-49.5c9.4,0,17,7.6,17,17v192.8c0,9.4-7.6,17-17,17H991.1c-9.4,0-17-7.6-17-17V-32.4
		c0-9.4,7.6-17,17-17L2034.2-49.5L2034.2-49.5z"/>
</g>
<g id="ARC_1_">
	<path class="st0" d="M2034.2-514.3c9.4,0,17,7.6,17,17v192.8c0,9.4-7.6,17-17,17H991.1c-9.4,0-17-7.6-17-17v-192.8
		c0-9.4,7.6-17,17-17H2034.2z"/>
</g>
<g id="ARC_2_">
	<path class="st0" d="M2034.2,183c9.4,0,17,7.6,17,17v192.8c0,9.4-7.6,17-17,17H991.1c-9.4,0-17-7.6-17-17V200c0-9.4,7.6-17,17-17
		H2034.2z"/>
</g>
<g id="ARC_4_">
	<path class="st0" d="M2034.2-281.9c9.4,0,17,7.6,17,17v192.8c0,9.4-7.6,17-17,17H991.1c-9.4,0-17-7.6-17-17v-192.8
		c0-9.4,7.6-17,17-17H2034.2z"/>
</g>
<g id="ARC_5_">
	<path class="st0" d="M1794.5,758.3c-3.5,0-6.9-1.1-9.8-3.1c-7.7-5.4-9.6-16-4.2-23.7l88.5-126.3c3.2-4.5,8.4-7.3,13.9-7.3h778.2
		c5.5,0,10.7,2.7,13.9,7.3l88.5,126.3c2,2.9,3.1,6.3,3.1,9.8c0,9.4-7.6,17-17,17L1794.5,758.3L1794.5,758.3z"/>
</g>
<g id="ARC_6_">
	<path class="st0" d="M3369.4,501.8c0,3.5-1.1,6.9-3.1,9.8c-5.4,7.7-16,9.6-23.7,4.2l-126.3-88.5c-4.5-3.2-7.3-8.4-7.3-13.9v-778.2
		c0-5.5,2.7-10.7,7.3-13.9l126.3-88.5c2.9-2,6.3-3.1,9.8-3.1c9.4,0,17,7.6,17,17V501.8L3369.4,501.8z"/>
</g>
<g id="ARC_7_">
	<path class="st0" d="M1794.5,1125.2c-3.5,0-6.9-1.1-9.8-3.1c-7.7-5.4-9.6-16-4.2-23.7l88.5-126.3c3.2-4.5,8.4-7.3,13.9-7.3h778.2
		c5.5,0,10.7,2.7,13.9,7.3l88.5,126.3c2,2.9,3.1,6.3,3.1,9.8c0,9.4-7.6,17-17,17L1794.5,1125.2L1794.5,1125.2z"/>
</g>
<g id="ARC_8_">
	<path class="st0" d="M1794.5,944.7c-3.5,0-6.9-1.1-9.8-3.1c-7.7-5.4-9.6-16-4.2-23.7l88.5-126.3c3.2-4.5,8.4-7.3,13.9-7.3h778.2
		c5.5,0,10.7,2.7,13.9,7.3l88.5,126.3c2,2.9,3.1,6.3,3.1,9.8c0,9.4-7.6,17-17,17L1794.5,944.7L1794.5,944.7z"/>
</g>
<g>
	<g id="ARC_9_">
		<path class="st0" d="M991.1,1212.6c-9.4,0-17-7.6-17-17V462.1c0-9.4,7.6-17,17-17h733.6c9.4,0,17,7.6,17,17v733.6
			c0,9.4-7.6,17-17,17L991.1,1212.6L991.1,1212.6z"/>
	</g>
	<g id="CIRCLE">
		<path class="st0" d="M1253,828.8c0-57.9,47-104.9,104.9-104.9s104.9,47,104.9,104.9c0,57.9-47,104.9-104.9,104.9
			S1253,886.8,1253,828.8L1253,828.8z"/>
	</g>
</g>
<g id="ARC_10_">
	<path class="st0" d="M3164.8,545.8c0,9.4-7.6,17-17,17H2104.7c-9.4,0-17-7.6-17-17V-497.3c0-9.4,7.6-17,17-17h1043.1
		c9.4,0,17,7.6,17,17V545.8z"/>
</g>
<g id="ARC_11_">
	<path class="st0" d="M3130.2,881.6c-28.2,0-51-22.8-51-51V705.8c0-28.2,22.8-51,51-51h124.7c28.2,0,51,22.8,51,51v124.7
		c0,28.2-22.8,51-51,51H3130.2z"/>
</g>
<g id="CIRCLE_3_">
	<path class="st0" d="M2886.4,731.5c0-47,38.1-85,85-85c47,0,85,38.1,85,85s-38.1,85-85,85C2924.5,816.6,2886.4,778.5,2886.4,731.5
		L2886.4,731.5z"/>
</g>
<g id="CIRCLE_1_">
	<path class="st0" d="M2869.4,948.7c0-57.9,47-104.9,104.9-104.9c57.9,0,104.9,47,104.9,104.9s-47,104.9-104.9,104.9
		C2916.4,1053.6,2869.4,1006.7,2869.4,948.7L2869.4,948.7z"/>
</g>
<g id="CIRCLE_2_">
	<path class="st0" d="M3107.5,997.4c0-47,38.1-85,85-85c47,0,85,38.1,85,85c0,47-38.1,85-85,85
		C3145.6,1082.4,3107.5,1044.3,3107.5,997.4L3107.5,997.4z"/>
</g>
</svg>
