<?xml version="1.0" encoding="utf-8"?>
<!-- Generator: Adobe Illustrator 19.0.0, SVG Export Plug-In . SVG Version: 6.00 Build 0)  -->
<svg version="1.2" baseProfile="tiny"
	 id="svg2" xmlns:cc="http://creativecommons.org/ns#" xmlns:rdf="http://www.w3.org/1999/02/22-rdf-syntax-ns#" xmlns:svg="http://www.w3.org/2000/svg" xmlns:dc="http://purl.org/dc/elements/1.1/"
	 xmlns="http://www.w3.org/2000/svg" xmlns:xlink="http://www.w3.org/1999/xlink" x="0px" y="0px"
	 viewBox="-181 -140.9 595.3 841.9" xml:space="preserve">
<g id="layer1">
	<path id="path5259" fill="none" stroke="#0000FF" stroke-width="3.543310e-003" d="M-124.1,74.4c-15-1.9-27.3-12.8-31-27.4
		c-1.2-4.6-1.1-0.7-1.1-58.9c0-47.6,0-53,0.3-54.8c2.3-16.3,15-29,31.3-31.3c1.8-0.3,7.2-0.3,54.8-0.3s53,0,54.8,0.3
		c16.3,2.4,29,15,31.3,31.3c0.3,1.8,0.3,7.2,0.3,54.8s0,53-0.3,54.8C14,59.6,1,72.4-15.7,74.4C-17.6,74.7-122.2,74.6-124.1,74.4
		L-124.1,74.4z"/>
	<path id="path5281" fill="none" stroke="#0000FF" stroke-width="3.543310e-003" d="M62.3,74.4c-15-1.9-27.3-12.8-31-27.4
		c-1.2-4.6-1.1-0.7-1.1-58.9c0-47.6,0-53,0.3-54.8c2.3-16.3,15-29,31.3-31.3c1.8-0.3,7.2-0.3,54.8-0.3s53,0,54.8,0.3
		c16.3,2.4,29,15,31.3,31.3c0.3,1.8,0.3,7.2,0.3,54.8s0,53-0.3,54.8c-2.4,16.6-15.4,29.4-32.1,31.4C168.8,74.7,64.2,74.7,62.3,74.4
		L62.3,74.4z"/>
	<path id="path5285" fill="none" stroke="#0000FF" stroke-width="3.543310e-003" d="M248.7,74.4c-15-1.9-27.3-12.8-31-27.4
		c-1.2-4.6-1.1-0.7-1.1-58.9c0-47.6,0-53,0.3-54.8c2.3-16.3,15-29,31.3-31.3c1.8-0.3,7.2-0.3,54.8-0.3s53,0,54.8,0.3
		c16.3,2.4,29,15,31.3,31.3c0.3,1.8,0.3,7.2,0.3,54.8s0,53-0.3,54.8c-2.4,16.6-15.4,29.4-32.1,31.4
		C355.2,74.7,250.5,74.7,248.7,74.4L248.7,74.4z"/>
	<path id="path5287" fill="none" stroke="#0000FF" stroke-width="3.543310e-003" d="M-124.1,269c-15-1.9-27.3-12.8-31-27.4
		c-1.2-4.6-1.1-0.7-1.1-58.9c0-47.6,0-53,0.3-54.8c2.3-16.3,15-29,31.3-31.3c1.8-0.3,7.2-0.3,54.8-0.3s53,0,54.8,0.3
		c16.3,2.4,29,15,31.3,31.3c0.3,1.8,0.3,7.2,0.3,54.8s0,53-0.3,54.8C14,254.2,1,267-15.7,269C-17.6,269.3-122.2,269.2-124.1,269
		L-124.1,269z"/>
	<path id="path5308" fill="none" stroke="#0000FF" stroke-width="3.543310e-003" d="M-124.1,463.6c-15-1.9-27.3-12.8-31-27.4
		c-1.2-4.6-1.1-0.7-1.1-58.9c0-47.6,0-53,0.3-54.8c2.3-16.3,15-29,31.3-31.3c1.8-0.3,7.2-0.3,54.8-0.3s53,0,54.8,0.3
		c16.3,2.4,29,15,31.3,31.3c0.3,1.8,0.3,7.2,0.3,54.8s0,53-0.3,54.8C14,448.8,1,461.6-15.7,463.6
		C-17.6,463.9-122.2,463.8-124.1,463.6L-124.1,463.6z"/>
	<path id="path5319" fill="none" stroke="#0000FF" stroke-width="3.543310e-003" d="M62.3,269c-15-1.9-27.3-12.8-31-27.4
		c-1.2-4.6-1.1-0.7-1.1-58.9c0-47.6,0-53,0.3-54.8c2.3-16.3,15-29,31.3-31.3c1.8-0.3,7.2-0.3,54.8-0.3s53,0,54.8,0.3
		c16.3,2.4,29,15,31.3,31.3c0.3,1.8,0.3,7.2,0.3,54.8s0,53-0.3,54.8c-2.4,16.6-15.4,29.4-32.1,31.4C168.8,269.3,64.2,269.3,62.3,269
		L62.3,269z"/>
	<path id="path5321" fill="none" stroke="#0000FF" stroke-width="3.543310e-003" d="M248.7,269c-15-1.9-27.3-12.8-31-27.4
		c-1.2-4.6-1.1-0.7-1.1-58.9c0-47.6,0-53,0.3-54.8c2.3-16.3,15-29,31.3-31.3c1.8-0.3,7.2-0.3,54.8-0.3s53,0,54.8,0.3
		c16.3,2.4,29,15,31.3,31.3c0.3,1.8,0.3,7.2,0.3,54.8s0,53-0.3,54.8c-2.4,16.6-15.4,29.4-32.1,31.4
		C355.2,269.3,250.5,269.3,248.7,269L248.7,269z"/>
	<path id="path5329" fill="none" stroke="#0000FF" stroke-width="3.543310e-003" d="M62.3,463.6c-15-1.9-27.3-12.8-31-27.4
		c-1.2-4.6-1.1-0.7-1.1-58.9c0-47.6,0-53,0.3-54.8c2.3-16.3,15-29,31.3-31.3c1.8-0.3,7.2-0.3,54.8-0.3s53,0,54.8,0.3
		c16.3,2.4,29,15,31.3,31.3c0.3,1.8,0.3,7.2,0.3,54.8s0,53-0.3,54.8c-2.4,16.6-15.4,29.4-32.1,31.4
		C168.8,463.9,64.2,463.8,62.3,463.6L62.3,463.6z"/>
	<path id="path5333" fill="none" stroke="#0000FF" stroke-width="3.543310e-003" d="M248.7,463.6c-15-1.9-27.3-12.8-31-27.4
		c-1.2-4.6-1.1-0.7-1.1-58.9c0-47.6,0-53,0.3-54.8c2.3-16.3,15-29,31.3-31.3c1.8-0.3,7.2-0.3,54.8-0.3s53,0,54.8,0.3
		c16.3,2.4,29,15,31.3,31.3c0.3,1.8,0.3,7.2,0.3,54.8s0,53-0.3,54.8c-2.4,16.6-15.4,29.4-32.1,31.4
		C355.2,463.9,250.5,463.8,248.7,463.6L248.7,463.6z"/>
	<path id="path5335" fill="none" stroke="#0000FF" stroke-width="3.543310e-003" d="M62.3,658.2c-15-1.9-27.3-12.8-31-27.4
		c-1.2-4.6-1.1-0.7-1.1-58.9c0-47.6,0-53,0.3-54.8c2.3-16.3,15-29,31.3-31.3c1.8-0.3,7.2-0.3,54.8-0.3s53,0,54.8,0.3
		c16.3,2.4,29,15,31.3,31.3c0.3,1.8,0.3,7.2,0.3,54.8s0,53-0.3,54.8c-2.4,16.6-15.4,29.4-32.1,31.4
		C168.8,658.4,64.2,658.4,62.3,658.2L62.3,658.2z"/>
</g>
<path fill="none" stroke="#0000FF" stroke-width="2.834646e-003" d="M-35.7,44.9h-68c-12.5,0-22.7-10.2-22.7-22.7v-68
	c0-12.5,10.2-22.7,22.7-22.7h68c12.5,0,22.7,10.2,22.7,22.7v68C-13,34.7-23.2,44.9-35.7,44.9z"/>
<path fill="none" stroke="#0000FF" stroke-width="2.834646e-003" d="M150.7,44.9h-68c-12.5,0-22.7-10.2-22.7-22.7v-68
	c0-12.5,10.2-22.7,22.7-22.7h68c12.5,0,22.7,10.2,22.7,22.7v68C173.3,34.7,163.2,44.9,150.7,44.9z"/>
<path fill="none" stroke="#0000FF" stroke-width="2.834646e-003" d="M337,44.9h-68c-12.5,0-22.7-10.2-22.7-22.7v-68
	c0-12.5,10.2-22.7,22.7-22.7h68c12.5,0,22.7,10.2,22.7,22.7v68C359.7,34.7,349.6,44.9,337,44.9z"/>
<path fill="none" stroke="#0000FF" stroke-width="2.834646e-003" d="M-35.7,239.5h-68c-12.5,0-22.7-10.2-22.7-22.7v-68
	c0-12.5,10.2-22.7,22.7-22.7h68c12.5,0,22.7,10.2,22.7,22.7v68C-13,229.3-23.2,239.5-35.7,239.5z"/>
<path fill="none" stroke="#0000FF" stroke-width="2.834646e-003" d="M150.7,239.5h-68c-12.5,0-22.7-10.2-22.7-22.7v-68
	c0-12.5,10.2-22.7,22.7-22.7h68c12.5,0,22.7,10.2,22.7,22.7v68C173.3,229.3,163.2,239.5,150.7,239.5z"/>
<path fill="none" stroke="#0000FF" stroke-width="2.834646e-003" d="M337,239.4h-68c-12.5,0-22.7-10.2-22.7-22.7v-68
	c0-12.5,10.2-22.7,22.7-22.7h68c12.5,0,22.7,10.2,22.7,22.7v68C359.7,229.3,349.6,239.4,337,239.4z"/>
<path fill="none" stroke="#0000FF" stroke-width="2.834646e-003" d="M-35.7,434h-68c-12.5,0-22.7-10.2-22.7-22.7v-68
	c0-12.5,10.2-22.7,22.7-22.7h68c12.5,0,22.7,10.2,22.7,22.7v68C-13,423.9-23.2,434-35.7,434z"/>
<path fill="none" stroke="#0000FF" stroke-width="2.834646e-003" d="M150.7,434h-68c-12.5,0-22.7-10.2-22.7-22.7v-68
	c0-12.5,10.2-22.7,22.7-22.7h68c12.5,0,22.7,10.2,22.7,22.7v68C173.3,423.9,163.2,434,150.7,434z"/>
<path fill="none" stroke="#0000FF" stroke-width="2.834646e-003" d="M337,434h-68c-12.5,0-22.7-10.2-22.7-22.7v-68
	c0-12.5,10.2-22.7,22.7-22.7h68c12.5,0,22.7,10.2,22.7,22.7v68C359.7,423.9,349.6,434,337,434z"/>
<path fill="none" stroke="#0000FF" stroke-width="2.834646e-003" d="M150.7,628.6h-68c-12.5,0-22.7-10.2-22.7-22.7v-68
	c0-12.5,10.2-22.7,22.7-22.7h68c12.5,0,22.7,10.2,22.7,22.7v68C173.3,618.5,163.2,628.6,150.7,628.6z"/>
</svg>
